<?xml version="1.0" encoding="utf-8"?>
<!-- Generator: Adobe Illustrator 22.1.0, SVG Export Plug-In . SVG Version: 6.00 Build 0)  -->
<svg version="1.1" id="Layer_1" xmlns="http://www.w3.org/2000/svg" xmlns:xlink="http://www.w3.org/1999/xlink" x="0px" y="0px"
	 viewBox="0 0 714 248" style="enable-background:new 0 0 714 248;" xml:space="preserve">
<style type="text/css">
	.st0{fill:#E6E6E6;}
	.st1{fill:#CCD42A;}
</style>
<path class="st0" d="M60.4,188.2c15.8-5.9,23.8-15,23.8-26.9c0-10.8-4.8-23.6-27.7-23.6H16.2v93.8H32v-80h23.5
	c10.9,0,12.2,5.9,12.2,10.3c0,9.3-7.8,15.1-23.9,17.7l-1.8,0.3v10l29.5,41.7H92L60.4,188.2z"/>
<polygon class="st0" points="109.4,217.9 109.4,190.8 154.2,190.8 154.2,177.2 109.4,177.2 109.4,151.3 156.4,151.3 156.4,137.7 
	93.7,137.7 93.7,231.5 157.4,231.5 157.4,217.9 "/>
<polygon class="st0" points="245.8,137.7 214.8,209.3 183.3,137.7 165.1,137.7 165.1,231.5 179.7,231.5 179.7,165.9 208.5,231.5 
	220.4,231.5 248.8,166 248.8,231.5 263.3,231.5 263.3,137.7 "/>
<rect x="273.2" y="137.7" class="st0" width="15.8" height="93.8"/>
<polygon class="st0" points="361.8,137.7 361.8,205.8 310.1,137.7 295.4,137.7 295.4,231.5 310.6,231.5 310.6,162.9 362.3,231.5 
	377,231.5 377,137.7 "/>
<path class="st0" d="M421.1,137.7h-34.7v93.8h34.7c30.9,0,46.6-16.6,46.6-49.3C467.7,152.7,452,137.7,421.1,137.7z M421.1,217.9
	h-18.9v-66.6h18.9c20.7,0,30.8,10.1,30.8,30.9C451.9,206.2,441.8,217.9,421.1,217.9z"/>
<rect x="471.8" y="137.7" class="st0" width="15.8" height="93.8"/>
<polygon class="st0" points="557.5,151.3 557.5,137.7 494.7,137.7 494.7,231.5 510.5,231.5 510.5,190.8 555.3,190.8 555.3,177.2 
	510.5,177.2 510.5,151.3 "/>
<rect x="575" y="201" class="st0" width="15" height="31"/>
<polygon class="st1" points="686.6,16.8 582.9,182.1 558.2,137.4 540.5,137.4 575.4,199.8 589.4,199.8 705,16.8 "/>
</svg>
